<svg id="Layer_1" data-name="Layer 1" xmlns="http://www.w3.org/2000/svg" viewBox="0 0 1335 557.85"><defs><style>.cls-1{fill:#fff}</style></defs><g id="_Group_" data-name="&lt;Group&gt;"><path id="_Path_" data-name="&lt;Path&gt;" class="cls-1" d="M778.27 108.28c273 34.37 507.48 131.42 471.09 268.89C1188.7 603.62 402.22 714.82 34.25 490.4c-20.23-12.13-28.31-4-10.11 10.11 289.12 240.6 1291.93 202.18 1324.28-121.3 14.15-133.44-232.51-256.78-568.14-281-48.51-2.06-50.53 4-2.01 10.07z" transform="translate(-14 -97.78)"/><g id="_Group_2" data-name="&lt;Group&gt;"><g id="_Group_3" data-name="&lt;Group&gt;"><path id="_Path_2" data-name="&lt;Path&gt;" class="cls-1" d="M331.46 520.73l32.35-165.79h66.75l6.06 89 40.41-89h66.75L511.4 520.73h-46.5l22.24-119.29-52.57 119.29h-32.35l-8.1-119.29-24.25 119.29z" transform="translate(-14 -97.78)"/><path id="_Compound_Path_" data-name="&lt;Compound Path&gt;" class="cls-1" d="M669.1 407.51a39.17 39.17 0 00-18.2-10.11 120.08 120.08 0 00-38.42-2c-26.28 2-50.54 12.13-62.66 38.42l44.48 4a22 22 0 0120.21-14.15c6.06 0 14.16 2 14.16 10.11a7.42 7.42 0 01-2 6.07c-8.08 0-14.15 2-22.24 2-30.31 4-68.72 14.15-68.72 52.55 0 20.22 18.2 28.31 34.37 28.31s36.39-6.07 44.48-20.21c0 6.06-2 8.08-2 12.13v6.07h44.48v-4a68.87 68.87 0 012-20.22l12.13-58.63a71.33 71.33 0 012-12.13 18.17 18.17 0 00-4.07-18.21zm-48.53 64.71a27.78 27.78 0 01-16.17 20.21c-8.09 4.05-20.22 2.05-18.2-10.1 2-8.09 10.11-12.13 18.2-16.18a48.36 48.36 0 0118.2-4z" transform="translate(-14 -97.78)"/><path id="_Compound_Path_2" data-name="&lt;Compound Path&gt;" class="cls-1" d="M972.37 407.51a39.17 39.17 0 00-18.2-10.11 120.08 120.08 0 00-38.42-2c-26.28 2-50.54 12.13-62.66 38.42l44.48 4a22 22 0 0120.21-14.15c6.07 0 14.16 2 14.16 10.11a7.42 7.42 0 01-2.05 6.07c-8.08 0-14.15 2-22.24 2-30.31 4-68.72 14.15-68.72 52.55 0 20.22 18.2 28.31 34.37 28.31s36.39-6.07 44.47-20.21c0 6.06-2 8.08-2 12.13v6.07h44.48v-4a68.87 68.87 0 012-20.22l12.13-58.63a71.33 71.33 0 012-12.13 18.17 18.17 0 00-4.01-18.21zm-48.53 64.71a27.78 27.78 0 01-16.17 20.21c-8.09 4.05-20.22 2.05-18.2-10.1 2-8.09 10.11-12.13 18.2-16.18a48.32 48.32 0 0118.2-4z" transform="translate(-14 -97.78)"/><path id="_Path_3" data-name="&lt;Path&gt;" class="cls-1" d="M794.45 385.27l6.07-32.35 48.52-2-8.04 34.33z" transform="translate(-14 -97.78)"/><path id="_Path_4" data-name="&lt;Path&gt;" class="cls-1" d="M768.17 518.71l24.26-121.31h46.5l-24.26 121.31z" transform="translate(-14 -97.78)"/><path id="_Path_5" data-name="&lt;Path&gt;" class="cls-1" d="M675.17 520.7h46.5l12.13-58.58a27.2 27.2 0 0110.1-18.19 24.7 24.7 0 0118.2-6.07 15.11 15.11 0 0110.11 2l8.09-44.48h-8.09a24.25 24.25 0 00-16.21 4.09 44.1 44.1 0 00-10.11 8.08 86 86 0 00-10.11 14.16l4-24.29h-40.35z" transform="translate(-14 -97.78)"/></g><g id="_Group_4" data-name="&lt;Group&gt;"><path id="_Compound_Path_3" data-name="&lt;Compound Path&gt;" class="cls-1" d="M982.47 209.37a39.09 39.09 0 00-18.19-10.11 119.45 119.45 0 00-38.41-2c-26.29 2-50.55 12.13-62.67 38.41l44.48 4.05a22 22 0 0120.22-14.16c6.06 0 14.15 2 14.15 10.11a7.44 7.44 0 01-2 6.07c-8.09 0-14.16 2-22.24 2-30.32 4-68.73 14.16-68.73 52.57 0 20.21 18.2 28.3 34.37 28.3s36.39-6.07 44.47-20.21c0 6.07-2 8.08-2 12.13v6.07h44.48v-4.05a68.47 68.47 0 012-20.21l16.18-58.64a71.31 71.31 0 012-12.13 38.13 38.13 0 00-8.11-18.2zM936 274.08a27.81 27.81 0 01-16.2 20.22c-8.09 4-20.22 2-18.2-10.11 2-8.09 10.11-12.13 18.2-16.18a48.16 48.16 0 0118.2-4z" transform="translate(-14 -97.78)"/><path id="_Path_6" data-name="&lt;Path&gt;" class="cls-1" d="M408.29 282.17a38.09 38.09 0 01-16.18 4.05 32.6 32.6 0 01-18.2-6.07 16.41 16.41 0 01-8.08-16.15l-48.52 10.1a46.08 46.08 0 006.06 22.24 54.58 54.58 0 0014.16 16.17 94.32 94.32 0 0020.21 10.11 101.41 101.41 0 0024.26 4.02 96.46 96.46 0 0040.44-8.09 62.39 62.39 0 0032.35-22.24 56.41 56.41 0 0012.13-36.39 34.9 34.9 0 00-10.11-26.28 80.42 80.42 0 00-26.28-14.13 115.74 115.74 0 01-28.31-8.09c-8.08-2-12.13-6.06-12.13-10.1q0-3 6.06-6.07a26.8 26.8 0 0128.31 0 18.5 18.5 0 018.08 12.13L477 195.25A46.11 46.11 0 00464.89 171a72.38 72.38 0 00-20.22-14.18 102.09 102.09 0 00-26.27-4.05 91.54 91.54 0 00-32.35 6.07A129.36 129.36 0 00357.74 175c-16.17 14.16-28.3 50.55-8.08 66.75a46.09 46.09 0 0024.26 12.14c10.11 2 18.2 6.06 28.31 8.08 8.08 2 14.15 6.07 14.15 10.11-.01 6.01-2.03 8.05-8.09 10.09z" transform="translate(-14 -97.78)"/><path id="_Compound_Path_4" data-name="&lt;Compound Path&gt;" class="cls-1" d="M608.44 209.37a39.14 39.14 0 00-18.19-10.11 119.45 119.45 0 00-38.41-2c-26.29 2-50.55 12.13-62.67 38.41l44.48 4.05a22 22 0 0120.22-14.16c6.06 0 14.15 2 14.15 10.11a7.44 7.44 0 01-2 6.07c-8.09 0-14.16 2-22.24 2-30.32 4-68.73 14.16-68.73 52.57 0 20.21 18.19 28.3 34.36 28.3s36.4-6.07 44.48-20.21c0 6.07-2 8.08-2 12.13v6.07h44.48v-4.05a68.47 68.47 0 012-20.21l14.15-58.64a71.33 71.33 0 012-12.13 24.74 24.74 0 00-6.08-18.2zm-48.52 64.71a27.8 27.8 0 01-16.18 20.22c-8.08 4-20.21 2-18.2-10.11 2.05-8.09 10.11-12.13 18.2-16.18a48.2 48.2 0 0118.2-4z" transform="translate(-14 -97.78)"/><path id="_Path_7" data-name="&lt;Path&gt;" class="cls-1" d="M638.77 197.26l-24.26 123.29H663l14.14-78.83a17.15 17.15 0 016.06-10.11 34.1 34.1 0 0110.11-4c6.06 0 8.08 4 8.08 12.13l-16.16 80.85h48.57l16.2-84.96v-10.08c0-10.11-2-18.2-8.08-22.24a42.43 42.43 0 00-22.25-8.09 44.52 44.52 0 00-16.17 2 32.7 32.7 0 00-14.16 8.09c-4 4-8.08 6.07-10.1 10.11l4-18.2z" transform="translate(-14 -97.78)"/><path id="_Path_8" data-name="&lt;Path&gt;" class="cls-1" d="M798.5 158.83l-10.11 38.41h-20.22l-6.07 32.35h18.2l-10.11 50.52v12.13a26.09 26.09 0 0010.11 22.24 43.14 43.14 0 0024.26 6.07 279.47 279.47 0 0032.35-4.05l6.09-34.37c-4.05 0-10.11 2-14.16 2s-6.07 0-6.07-2c-4-4 0-10.11 0-14.15l8.09-42.46h24.26l6.07-30.33h-24.28l8.09-40.41z" transform="translate(-14 -97.78)"/></g></g></g></svg>