<svg width="256" height="215" viewBox="0 0 256 215" fill="none" xmlns="http://www.w3.org/2000/svg">
<g filter="url(#filter0_d_9661_7793)">
<mask id="path-1-outside-1_9661_7793" maskUnits="userSpaceOnUse" x="1.58674" y="-3.58468" width="255.835" height="212.23" fill="black">
<rect fill="white" x="1.58674" y="-3.58468" width="255.835" height="212.23"/>
<path fill-rule="evenodd" clip-rule="evenodd" d="M108.14 81.4383C106.294 45.1225 134.176 14.1791 170.431 12.3364L170.58 12.3289C206.774 10.5703 237.563 38.5005 239.407 74.7706C239.433 75.2816 239.451 75.7944 239.463 76.309C239.697 84.7583 238.322 92.8963 235.611 100.419C222.324 143.001 179.334 187.512 179.334 187.512L179.334 187.508C179.334 187.508 132.098 147.626 114.542 106.63C111.061 99.394 108.858 91.4035 108.237 82.9367C108.198 82.4362 108.165 81.9367 108.14 81.4383ZM52.8029 98.97L92.0811 96.9735C95.2385 96.813 97.2506 94.1983 95.9149 91.9962L73.9427 55.7721C72.2717 53.0153 67.0973 53.3129 65.7714 56.2394L48.461 94.4602C47.4112 96.7791 49.6756 99.1289 52.8029 98.97ZM148.476 187.373L109.197 189.369C106.07 189.528 103.806 187.178 104.855 184.859L122.166 146.639C123.492 143.712 128.666 143.415 130.337 146.171L152.309 182.396C153.645 184.598 151.633 187.212 148.476 187.373ZM37.6457 86.0468C47.131 85.5647 53.0348 79.7934 52.5426 70.1107C52.0474 60.3674 45.5223 55.1066 35.9767 55.5918L19.0895 56.4501C17.1312 56.5496 16.4926 57.2579 16.5892 59.159L18.5394 97.5271C18.636 99.4283 19.3432 100.068 21.3015 99.9686L28.2116 99.6173C30.1699 99.5178 30.7482 98.8126 30.6515 96.9115L30.1187 86.4294L37.6457 86.0468ZM31.0934 105.523L32.6291 135.738L47.3768 134.988C49.2747 134.892 49.9788 135.471 50.0785 137.433L50.362 143.011C50.4587 144.912 49.82 145.62 47.9221 145.717L23.6892 146.948C21.7309 147.048 21.0237 146.408 20.9271 144.507L18.9769 106.139C18.8803 104.238 19.5189 103.53 21.4772 103.43L28.3917 103.079C30.35 102.979 30.9968 103.622 31.0934 105.523ZM61.6784 101.386L54.4577 101.753C52.6245 101.847 52.043 102.487 52.1365 104.328L54.0992 142.942C54.1925 144.778 54.8319 145.361 56.6695 145.268L63.8902 144.901C65.7234 144.807 66.3049 144.167 66.2114 142.326L64.2487 103.712C64.1553 101.876 63.516 101.293 61.6784 101.386ZM57.6145 150.669L59.5646 189.037C59.6613 190.938 59.0226 191.646 57.1247 191.743L50.2103 192.094C48.9248 192.16 48.2333 191.827 47.6375 190.995L37.4742 176.948C34.5676 172.854 33.3816 170.025 31.4493 164.596L30.9619 164.621L31.1144 165.18C32.6039 170.645 33.4498 173.748 33.7844 180.332L34.2922 190.322C34.3888 192.223 33.7501 192.931 31.7918 193.031L25.615 193.344C23.6567 193.444 22.9495 192.804 22.8529 190.903L20.9027 152.535C20.8061 150.634 21.4447 149.926 23.403 149.826L30.6237 149.459C32.0299 149.388 32.6611 149.724 33.2569 150.555L44.0876 165.738C46.1838 168.69 47.0856 170.712 48.2488 173.319C48.6986 174.327 49.1874 175.423 49.7994 176.694L50.2868 176.669C48.0076 170.456 47.0644 167.554 46.7466 161.302L46.2358 151.252C46.1392 149.351 46.7174 148.645 48.6757 148.546L54.9173 148.229C56.8152 148.132 57.5224 148.772 57.619 150.673L57.6145 150.669ZM101.789 186.89L99.8387 148.522C99.739 146.561 99.0319 145.921 97.1339 146.017L90.1591 146.372C88.2612 146.468 87.6225 147.176 87.7222 149.138L88.4107 162.684L76.5401 163.287L75.8516 149.741C75.7519 147.78 75.1052 147.137 73.1469 147.236L66.2324 147.588C64.2741 147.687 63.6355 148.396 63.7352 150.357L65.6853 188.725C65.782 190.627 66.4891 191.266 68.4474 191.167L75.3619 190.815C77.3202 190.716 77.8984 190.011 77.8018 188.11L77.0852 174.011L88.9558 173.408L89.6724 187.506C89.769 189.407 90.4762 190.047 92.3741 189.951L99.349 189.596C101.247 189.5 101.886 188.791 101.789 186.89Z"/>
</mask>
<path fill-rule="evenodd" clip-rule="evenodd" d="M108.14 81.4383C106.294 45.1225 134.176 14.1791 170.431 12.3364L170.58 12.3289C206.774 10.5703 237.563 38.5005 239.407 74.7706C239.433 75.2816 239.451 75.7944 239.463 76.309C239.697 84.7583 238.322 92.8963 235.611 100.419C222.324 143.001 179.334 187.512 179.334 187.512L179.334 187.508C179.334 187.508 132.098 147.626 114.542 106.63C111.061 99.394 108.858 91.4035 108.237 82.9367C108.198 82.4362 108.165 81.9367 108.14 81.4383ZM52.8029 98.97L92.0811 96.9735C95.2385 96.813 97.2506 94.1983 95.9149 91.9962L73.9427 55.7721C72.2717 53.0153 67.0973 53.3129 65.7714 56.2394L48.461 94.4602C47.4112 96.7791 49.6756 99.1289 52.8029 98.97ZM148.476 187.373L109.197 189.369C106.07 189.528 103.806 187.178 104.855 184.859L122.166 146.639C123.492 143.712 128.666 143.415 130.337 146.171L152.309 182.396C153.645 184.598 151.633 187.212 148.476 187.373ZM37.6457 86.0468C47.131 85.5647 53.0348 79.7934 52.5426 70.1107C52.0474 60.3674 45.5223 55.1066 35.9767 55.5918L19.0895 56.4501C17.1312 56.5496 16.4926 57.2579 16.5892 59.159L18.5394 97.5271C18.636 99.4283 19.3432 100.068 21.3015 99.9686L28.2116 99.6173C30.1699 99.5178 30.7482 98.8126 30.6515 96.9115L30.1187 86.4294L37.6457 86.0468ZM31.0934 105.523L32.6291 135.738L47.3768 134.988C49.2747 134.892 49.9788 135.471 50.0785 137.433L50.362 143.011C50.4587 144.912 49.82 145.62 47.9221 145.717L23.6892 146.948C21.7309 147.048 21.0237 146.408 20.9271 144.507L18.9769 106.139C18.8803 104.238 19.5189 103.53 21.4772 103.43L28.3917 103.079C30.35 102.979 30.9968 103.622 31.0934 105.523ZM61.6784 101.386L54.4577 101.753C52.6245 101.847 52.043 102.487 52.1365 104.328L54.0992 142.942C54.1925 144.778 54.8319 145.361 56.6695 145.268L63.8902 144.901C65.7234 144.807 66.3049 144.167 66.2114 142.326L64.2487 103.712C64.1553 101.876 63.516 101.293 61.6784 101.386ZM57.6145 150.669L59.5646 189.037C59.6613 190.938 59.0226 191.646 57.1247 191.743L50.2103 192.094C48.9248 192.16 48.2333 191.827 47.6375 190.995L37.4742 176.948C34.5676 172.854 33.3816 170.025 31.4493 164.596L30.9619 164.621L31.1144 165.18C32.6039 170.645 33.4498 173.748 33.7844 180.332L34.2922 190.322C34.3888 192.223 33.7501 192.931 31.7918 193.031L25.615 193.344C23.6567 193.444 22.9495 192.804 22.8529 190.903L20.9027 152.535C20.8061 150.634 21.4447 149.926 23.403 149.826L30.6237 149.459C32.0299 149.388 32.6611 149.724 33.2569 150.555L44.0876 165.738C46.1838 168.69 47.0856 170.712 48.2488 173.319C48.6986 174.327 49.1874 175.423 49.7994 176.694L50.2868 176.669C48.0076 170.456 47.0644 167.554 46.7466 161.302L46.2358 151.252C46.1392 149.351 46.7174 148.645 48.6757 148.546L54.9173 148.229C56.8152 148.132 57.5224 148.772 57.619 150.673L57.6145 150.669ZM101.789 186.89L99.8387 148.522C99.739 146.561 99.0319 145.921 97.1339 146.017L90.1591 146.372C88.2612 146.468 87.6225 147.176 87.7222 149.138L88.4107 162.684L76.5401 163.287L75.8516 149.741C75.7519 147.78 75.1052 147.137 73.1469 147.236L66.2324 147.588C64.2741 147.687 63.6355 148.396 63.7352 150.357L65.6853 188.725C65.782 190.627 66.4891 191.266 68.4474 191.167L75.3619 190.815C77.3202 190.716 77.8984 190.011 77.8018 188.11L77.0852 174.011L88.9558 173.408L89.6724 187.506C89.769 189.407 90.4762 190.047 92.3741 189.951L99.349 189.596C101.247 189.5 101.886 188.791 101.789 186.89Z" fill="white"/>
<path d="M170.431 12.3364L169.854 0.731211L169.841 0.731869L170.431 12.3364ZM170.58 12.3289L170.016 0.723137L170.003 0.723782L170.58 12.3289ZM239.463 76.309L227.846 76.5667C227.847 76.5882 227.847 76.6097 227.848 76.6311L239.463 76.309ZM235.611 100.419L224.68 96.4806C224.623 96.6386 224.569 96.7979 224.519 96.9582L235.611 100.419ZM179.334 187.512L167.73 188.102C167.965 192.725 170.922 196.768 175.256 198.392C179.591 200.017 184.476 198.914 187.692 195.584L179.334 187.512ZM179.334 187.508L190.939 186.918C190.775 183.705 189.288 180.704 186.83 178.629L179.334 187.508ZM114.542 106.63L125.223 102.056C125.156 101.901 125.086 101.747 125.013 101.594L114.542 106.63ZM108.237 82.9367L119.826 82.0876C119.824 82.0661 119.822 82.0447 119.821 82.0232L108.237 82.9367ZM95.9149 91.9962L85.9801 98.0223L85.9804 98.0227L95.9149 91.9962ZM73.9427 55.7721L64.0061 61.7951L64.008 61.7981L73.9427 55.7721ZM65.7714 56.2394L55.1876 51.444L55.1868 51.4456L65.7714 56.2394ZM48.461 94.4602L37.8765 89.6664L37.8756 89.6683L48.461 94.4602ZM109.197 189.369L109.787 200.974L109.197 189.369ZM148.476 187.373L147.886 175.768L148.476 187.373ZM104.855 184.859L94.2709 180.066L94.2701 180.068L104.855 184.859ZM122.166 146.639L111.582 141.843L111.581 141.845L122.166 146.639ZM130.337 146.171L120.401 152.194L120.402 152.197L130.337 146.171ZM152.309 182.396L142.375 188.422L142.375 188.422L152.309 182.396ZM30.1187 86.4294L29.5289 74.8249C23.1199 75.1507 18.1885 80.6102 18.5142 87.0192L30.1187 86.4294ZM32.6291 135.738L21.0247 136.328C21.1811 139.405 22.5537 142.295 24.8406 144.361C27.1275 146.426 30.1413 147.499 33.219 147.342L32.6291 135.738ZM31.0934 105.523L42.6979 104.933L31.0934 105.523ZM47.3768 134.988L46.787 123.384L47.3768 134.988ZM47.9221 145.717L48.5119 157.321L47.9221 145.717ZM23.6892 146.948L23.0993 135.344L23.6892 146.948ZM21.4772 103.43L20.8874 91.8255L21.4772 103.43ZM28.3917 103.079L28.9815 114.683L28.3917 103.079ZM59.5646 189.037L47.9601 189.627L59.5646 189.037ZM57.6145 150.669L65.3839 142.029C61.8929 138.89 56.8556 138.16 52.6171 140.179C48.3785 142.198 45.7716 146.57 46.01 151.259L57.6145 150.669ZM47.6375 190.995L57.0834 184.228C57.0728 184.213 57.0621 184.199 57.0514 184.184L47.6375 190.995ZM37.4742 176.948L28.0004 183.675C28.0202 183.703 28.0402 183.731 28.0603 183.759L37.4742 176.948ZM31.4493 164.596L42.3962 160.7C40.6752 155.865 35.9855 152.731 30.8595 152.992L31.4493 164.596ZM30.9619 164.621L30.3721 153.016C26.8592 153.195 23.6163 154.955 21.5526 157.803C19.4888 160.652 18.8265 164.282 19.7512 167.675L30.9619 164.621ZM31.1144 165.18L19.9036 168.235L19.9039 168.236L31.1144 165.18ZM33.2569 150.555L42.7163 143.808C42.7118 143.801 42.7074 143.795 42.7029 143.789L33.2569 150.555ZM44.0876 165.738L53.5615 159.011C53.5567 159.004 53.5518 158.997 53.547 158.991L44.0876 165.738ZM48.2488 173.319L58.8602 168.585L58.8602 168.585L48.2488 173.319ZM49.7994 176.694L39.3305 181.735C41.3599 185.949 45.718 188.536 50.3892 188.298L49.7994 176.694ZM50.2868 176.669L50.8766 188.273C54.564 188.086 57.9428 186.157 59.9792 183.078C62.0155 179.998 62.467 176.133 61.1955 172.667L50.2868 176.669ZM46.7466 161.302L58.3511 160.712L46.7466 161.302ZM46.2358 151.252L34.6313 151.841L46.2358 151.252ZM48.6757 148.546L48.0859 136.941L48.6757 148.546ZM54.9173 148.229L55.5071 159.833L54.9173 148.229ZM57.619 150.673L49.8495 159.313C53.3406 162.452 58.3778 163.182 62.6164 161.163C66.8549 159.144 69.4618 154.772 69.2235 150.083L57.619 150.673ZM99.8387 148.522L88.2342 149.112L99.8387 148.522ZM101.789 186.89L113.393 186.301L101.789 186.89ZM97.1339 146.017L96.5441 134.413L97.1339 146.017ZM90.1591 146.372L90.7489 157.976L90.1591 146.372ZM88.4107 162.684L89.0006 174.288C95.4095 173.962 100.341 168.503 100.015 162.094L88.4107 162.684ZM76.5401 163.287L64.9356 163.877C65.0921 166.954 66.4647 169.844 68.7516 171.91C71.0385 173.975 74.0523 175.048 77.13 174.891L76.5401 163.287ZM77.0852 174.011L76.4954 162.407C70.0864 162.732 65.155 168.192 65.4807 174.601L77.0852 174.011ZM88.9558 173.408L100.56 172.818C100.404 169.74 99.0312 166.851 96.7444 164.785C94.4575 162.719 91.4437 161.647 88.366 161.803L88.9558 173.408ZM89.6724 187.506L78.0679 188.096L89.6724 187.506ZM169.841 0.731869C127.154 2.90155 94.365 39.3268 96.5354 82.0281L119.744 80.8485C118.223 50.9182 141.198 25.4566 171.02 23.9409L169.841 0.731869ZM170.003 0.723782L169.854 0.731218L171.007 23.9415L171.157 23.9341L170.003 0.723782ZM251.011 74.1808C248.844 31.5347 212.633 -1.3475 170.016 0.723145L171.144 23.9347C200.916 22.4882 226.283 45.4662 227.802 75.3604L251.011 74.1808ZM251.079 76.0514C251.066 75.4279 251.043 74.8043 251.011 74.1808L227.802 75.3604C227.823 75.7588 227.837 76.1609 227.846 76.5667L251.079 76.0514ZM246.543 104.358C249.737 95.494 251.353 85.9121 251.078 75.9869L227.848 76.6311C228.041 83.6046 226.907 90.2986 224.68 96.4806L246.543 104.358ZM179.334 187.512C187.692 195.584 187.694 195.583 187.695 195.581C187.696 195.58 187.698 195.578 187.699 195.577C187.702 195.574 187.706 195.57 187.71 195.565C187.719 195.556 187.73 195.545 187.744 195.53C187.772 195.502 187.809 195.462 187.857 195.412C187.953 195.312 188.089 195.169 188.263 194.985C188.61 194.618 189.109 194.086 189.742 193.402C191.006 192.033 192.807 190.052 195 187.548C199.381 182.546 205.356 175.429 211.767 166.931C224.417 150.159 239.456 127.105 246.703 103.881L224.519 96.9582C218.479 116.315 205.38 136.808 193.214 152.937C187.216 160.889 181.613 167.561 177.519 172.236C175.474 174.57 173.812 176.399 172.673 177.631C172.104 178.247 171.667 178.713 171.378 179.018C171.233 179.171 171.126 179.283 171.059 179.354C171.025 179.389 171.001 179.414 170.987 179.429C170.98 179.436 170.976 179.44 170.974 179.442C170.973 179.443 170.973 179.443 170.973 179.443C170.974 179.443 170.974 179.442 170.974 179.442C170.975 179.441 170.977 179.44 179.334 187.512ZM167.73 188.097L167.73 188.102L190.939 186.922L190.939 186.918L167.73 188.097ZM103.86 111.204C113.435 133.561 130.725 154.955 145.003 170.345C152.238 178.143 158.899 184.611 163.76 189.139C166.194 191.405 168.185 193.192 169.58 194.424C170.278 195.041 170.828 195.518 171.21 195.848C171.401 196.013 171.551 196.141 171.656 196.231C171.709 196.276 171.751 196.312 171.781 196.338C171.796 196.351 171.809 196.361 171.818 196.369C171.823 196.373 171.827 196.377 171.83 196.379C171.832 196.381 171.834 196.382 171.835 196.383C171.837 196.385 171.838 196.386 179.334 187.508C186.83 178.629 186.831 178.63 186.832 178.631C186.832 178.631 186.833 178.632 186.833 178.632C186.834 178.633 186.834 178.632 186.833 178.632C186.831 178.63 186.826 178.626 186.818 178.62C186.803 178.607 186.777 178.584 186.74 178.553C186.665 178.489 186.548 178.388 186.389 178.251C186.071 177.977 185.588 177.558 184.96 177.003C183.704 175.894 181.867 174.245 179.598 172.132C175.054 167.901 168.809 161.836 162.04 154.54C148.31 139.74 133.205 120.695 125.223 102.056L103.86 111.204ZM96.6488 83.7859C97.3776 93.7315 99.9696 103.14 104.07 111.666L125.013 101.594C122.153 95.6479 120.338 89.0755 119.826 82.0876L96.6488 83.7859ZM96.5354 82.0281C96.5663 82.6363 96.6058 83.2437 96.6537 83.8503L119.821 82.0232C119.79 81.6287 119.764 81.2371 119.744 80.8485L96.5354 82.0281ZM91.4913 85.369L52.213 87.3655L53.3927 110.574L92.6709 108.578L91.4913 85.369ZM85.9804 98.0227C85.0609 96.507 84.5729 94.615 84.7506 92.6395C84.9216 90.7385 85.6617 89.2196 86.4765 88.1615C88.0626 86.1015 90.0952 85.44 91.4913 85.369L92.6709 108.578C97.2244 108.347 101.842 106.297 104.889 102.339C108.146 98.1106 109.331 91.7096 105.849 85.9698L85.9804 98.0227ZM64.008 61.7981L85.9801 98.0223L105.85 85.9702L83.8774 49.746L64.008 61.7981ZM76.3551 61.0348C74.6469 64.805 71.4031 65.417 70.3926 65.4749C69.374 65.5333 66.1261 65.2925 64.0061 61.7951L83.8793 49.749C80.0883 43.4948 73.4177 42.0245 69.0627 42.2741C64.7157 42.5232 58.2218 44.7473 55.1876 51.444L76.3551 61.0348ZM59.0455 99.254L76.3559 61.0332L55.1868 51.4456L37.8765 89.6664L59.0455 99.254ZM52.213 87.3655C53.5938 87.2953 55.6547 87.7357 57.4347 89.584C58.3495 90.5338 59.2453 91.9428 59.6311 93.7914C60.0321 95.7124 59.7775 97.6371 59.0463 99.2521L37.8756 89.6683C35.1255 95.7432 37.0369 101.905 40.6963 105.705C44.128 109.268 48.8847 110.804 53.3927 110.574L52.213 87.3655ZM109.787 200.974L149.065 198.977L147.886 175.768L108.608 177.765L109.787 200.974ZM94.2701 180.068C91.52 186.142 93.4314 192.304 97.0908 196.104C100.522 199.667 105.279 201.203 109.787 200.974L108.608 177.765C109.988 177.695 112.049 178.135 113.829 179.983C114.744 180.933 115.64 182.342 116.026 184.191C116.427 186.112 116.172 188.036 115.441 189.651L94.2701 180.068ZM111.581 141.845L94.2709 180.066L115.44 189.653L132.75 151.432L111.581 141.845ZM140.274 140.148C136.483 133.894 129.812 132.424 125.457 132.673C121.11 132.923 114.616 135.147 111.582 141.843L132.75 151.434C131.041 155.204 127.798 155.816 126.787 155.874C125.768 155.933 122.521 155.692 120.401 152.194L140.274 140.148ZM162.244 176.37L140.272 140.145L120.402 152.197L142.375 188.422L162.244 176.37ZM149.065 198.977C153.619 198.746 158.236 196.697 161.284 192.739C164.54 188.51 165.726 182.109 162.244 176.369L142.375 188.422C141.455 186.906 140.967 185.014 141.145 183.039C141.316 181.138 142.056 179.619 142.871 178.561C144.457 176.501 146.49 175.839 147.886 175.768L149.065 198.977ZM40.9381 70.7005C40.9986 71.8902 40.8453 72.605 40.7259 72.9656C40.6154 73.2993 40.5048 73.4287 40.4461 73.4899C40.38 73.5588 39.6203 74.312 37.0559 74.4423L38.2355 97.6513C45.1563 97.2995 52.0912 94.926 57.2252 89.5681C62.4519 84.1136 64.5227 76.9102 64.1471 69.5208L40.9381 70.7005ZM36.5665 67.1963C39.1148 67.0667 39.979 67.7412 40.0945 67.8401C40.1202 67.8622 40.8204 68.384 40.9381 70.7005L64.1471 69.5208C63.7696 62.0941 60.9596 55.1139 55.2126 50.191C49.5553 45.345 42.3841 43.6316 35.3868 43.9873L36.5665 67.1963ZM19.6793 68.0546L36.5665 67.1963L35.3868 43.9873L18.4997 44.8456L19.6793 68.0546ZM28.1937 58.5692C28.1998 58.6895 28.2388 59.4563 27.9893 60.5446C27.713 61.7495 27.0608 63.4274 25.6259 64.9895C24.1998 66.5419 22.6103 67.316 21.4993 67.6826C20.4886 68.016 19.7684 68.0501 19.6793 68.0546L18.4997 44.8456C16.7856 44.9327 12.1278 45.3318 8.51162 49.2684C4.8406 53.2648 4.89573 57.9982 4.98471 59.7488L28.1937 58.5692ZM30.1439 96.9373L28.1937 58.5692L4.98471 59.7488L6.93488 98.117L30.1439 96.9373ZM20.7116 88.3641C20.8006 88.3595 21.5206 88.3204 22.5599 88.5496C23.7023 88.8016 25.3622 89.4106 26.9383 90.8104C28.5242 92.219 29.3432 93.8221 29.7402 94.9928C30.0988 96.0502 30.1377 96.817 30.1439 96.9373L6.93488 98.117C7.02385 99.8676 7.44894 104.582 11.5063 108.186C15.5029 111.735 20.1772 111.66 21.8913 111.573L20.7116 88.3641ZM27.6218 88.0128L20.7116 88.3641L21.8913 111.573L28.8014 111.222L27.6218 88.0128ZM19.047 97.5013C19.0443 97.4486 19.0015 96.7383 19.221 95.7061C19.4638 94.5638 20.0664 92.8605 21.5002 91.2402C22.9417 89.611 24.5819 88.7904 25.7446 88.4012C26.7912 88.0509 27.5399 88.017 27.6218 88.0128L28.8014 111.222C30.482 111.136 35.271 110.746 38.9041 106.64C42.4844 102.594 42.334 97.8553 42.256 96.3217L19.047 97.5013ZM18.5142 87.0192L19.047 97.5013L42.256 96.3217L41.7232 85.8396L18.5142 87.0192ZM37.0559 74.4423L29.5289 74.8249L30.7086 98.0339L38.2355 97.6513L37.0559 74.4423ZM44.2336 135.148L42.6979 104.933L19.4889 106.113L21.0247 136.328L44.2336 135.148ZM46.787 123.384L32.0393 124.133L33.219 147.342L47.9666 146.593L46.787 123.384ZM61.683 136.843C61.5979 135.168 61.2105 130.385 57.1165 126.75C53.0702 123.157 48.3257 123.306 46.787 123.384L47.9666 146.593C47.9111 146.596 47.1967 146.639 46.1598 146.417C45.0117 146.172 43.3066 145.565 41.6875 144.128C40.0616 142.684 39.2455 141.045 38.8593 139.888C38.5115 138.846 38.478 138.102 38.474 138.023L61.683 136.843ZM61.9665 142.421L61.683 136.843L38.474 138.023L38.7575 143.601L61.9665 142.421ZM48.5119 157.321C50.2741 157.232 54.9289 156.803 58.5193 152.822C62.1045 148.846 62.0558 144.177 61.9665 142.421L38.7575 143.601C38.7513 143.477 38.7138 142.725 38.9561 141.655C39.2227 140.478 39.8543 138.819 41.2608 137.259C42.6681 135.699 44.2556 134.898 45.4052 134.51C46.4492 134.158 47.2057 134.119 47.3323 134.112L48.5119 157.321ZM24.279 158.553L48.5119 157.321L47.3323 134.112L23.0993 135.344L24.279 158.553ZM9.3226 145.097C9.41157 146.847 9.83666 151.562 13.894 155.166C17.8907 158.715 22.5649 158.64 24.279 158.553L23.0993 135.344C23.1884 135.339 23.9083 135.3 24.9476 135.53C26.0901 135.782 27.7499 136.39 29.326 137.79C30.912 139.199 31.7309 140.802 32.1279 141.973C32.4865 143.03 32.5255 143.797 32.5316 143.917L9.3226 145.097ZM7.37243 106.729L9.3226 145.097L32.5316 143.917L30.5814 105.549L7.37243 106.729ZM20.8874 91.8255C19.1733 91.9126 14.5155 92.3117 10.8993 96.2483C7.22832 100.245 7.28345 104.978 7.37243 106.729L30.5814 105.549C30.5875 105.669 30.6265 106.436 30.377 107.524C30.1007 108.729 29.4485 110.407 28.0136 111.969C26.5875 113.522 24.998 114.296 23.887 114.662C22.8763 114.996 22.1561 115.03 22.0671 115.034L20.8874 91.8255ZM27.8019 91.474L20.8874 91.8255L22.0671 115.034L28.9815 114.683L27.8019 91.474ZM42.6979 104.933C42.6199 103.4 42.2892 98.6704 38.3171 95.0081C34.2863 91.2916 29.4824 91.3886 27.8019 91.474L28.9815 114.683C28.8996 114.687 28.1514 114.729 27.0747 114.487C25.8784 114.218 24.1635 113.568 22.5642 112.093C20.9736 110.626 20.2014 108.993 19.844 107.881C19.521 106.877 19.4916 106.166 19.4889 106.113L42.6979 104.933ZM55.0476 113.358L62.2683 112.991L61.0886 89.7819L53.8679 90.1489L55.0476 113.358ZM63.741 103.738C63.7455 103.826 63.7872 104.573 63.5535 105.643C63.2947 106.827 62.6632 108.55 61.1984 110.173C59.7332 111.795 58.0817 112.599 56.9278 112.978C55.8861 113.319 55.1369 113.353 55.0476 113.358L53.8679 90.1489C52.3154 90.2278 47.5828 90.5758 43.9508 94.5979C40.3206 98.618 40.4529 103.36 40.532 104.917L63.741 103.738ZM65.7037 142.352L63.741 103.738L40.532 104.917L42.4947 143.532L65.7037 142.352ZM56.0796 133.663C56.171 133.658 56.9224 133.617 57.9964 133.852C59.1863 134.114 60.9115 134.749 62.5322 136.218C64.1512 137.685 64.951 139.335 65.3263 140.483C65.6653 141.521 65.6993 142.266 65.7037 142.352L42.4947 143.532C42.5734 145.079 42.9184 149.806 46.9284 153.439C50.9483 157.081 55.6963 156.952 57.2593 156.872L56.0796 133.663ZM63.3003 133.296L56.0796 133.663L57.2593 156.872L64.48 156.505L63.3003 133.296ZM54.6069 142.916C54.6024 142.828 54.5607 142.081 54.7944 141.011C55.0532 139.827 55.6847 138.104 57.1495 136.481C58.6147 134.859 60.2662 134.055 61.4201 133.676C62.4618 133.335 63.2109 133.301 63.3003 133.296L64.48 156.505C66.0325 156.426 70.7651 156.078 74.3971 152.056C78.0273 148.036 77.895 143.294 77.8159 141.737L54.6069 142.916ZM52.6442 104.302L54.6069 142.916L77.8159 141.737L75.8532 103.122L52.6442 104.302ZM62.2683 112.991C62.1768 112.996 61.4255 113.037 60.3515 112.802C59.1616 112.54 57.4364 111.905 55.8157 110.436C54.1966 108.969 53.3969 107.319 53.0216 106.171C52.6825 105.133 52.6486 104.388 52.6442 104.302L75.8532 103.122C75.7745 101.575 75.4295 96.8483 71.4195 93.2149C67.3996 89.5725 62.6516 89.7025 61.0886 89.7819L62.2683 112.991ZM71.1691 188.447L69.219 150.079L46.01 151.259L47.9601 189.627L71.1691 188.447ZM57.7145 203.347C59.4767 203.258 64.1315 202.83 67.7219 198.848C71.3071 194.872 71.2584 190.204 71.1691 188.447L47.9601 189.627C47.9539 189.503 47.9164 188.751 48.1587 187.681C48.4253 186.504 49.0569 184.845 50.4634 183.285C51.8707 181.725 53.4582 180.924 54.6078 180.536C55.6518 180.184 56.4083 180.145 56.5349 180.138L57.7145 203.347ZM50.8001 203.699L57.7145 203.347L56.5349 180.138L49.6204 180.49L50.8001 203.699ZM38.1915 197.761C39.3464 199.374 41.1825 201.286 43.996 202.521C46.6492 203.685 49.1327 203.784 50.8001 203.699L49.6204 180.49C50.0024 180.47 51.4974 180.435 53.3346 181.241C55.332 182.118 56.5243 183.448 57.0834 184.228L38.1915 197.761ZM28.0603 183.759L38.2235 197.806L57.0514 184.184L46.8882 170.137L28.0603 183.759ZM20.5025 168.492C22.5783 174.325 24.1896 178.309 28.0004 183.675L46.9481 170.22C44.9457 167.4 44.1849 165.726 42.3962 160.7L20.5025 168.492ZM31.5518 176.225L32.0392 176.201L30.8595 152.992L30.3721 153.016L31.5518 176.225ZM42.3251 162.126L42.1727 161.566L19.7512 167.675L19.9036 168.235L42.3251 162.126ZM45.3889 179.742C44.9904 171.903 43.8844 167.846 42.3249 162.125L19.9039 168.236C21.3235 173.444 21.9091 175.594 22.1799 180.922L45.3889 179.742ZM45.8966 189.732L45.3889 179.742L22.1799 180.922L22.6877 190.911L45.8966 189.732ZM32.3817 204.635C34.0957 204.548 38.7535 204.149 42.3697 200.212C46.0408 196.216 45.9856 191.482 45.8966 189.732L22.6877 190.911C22.6815 190.791 22.6425 190.024 22.8921 188.936C23.1683 187.731 23.8205 186.053 25.2555 184.491C26.6816 182.939 28.2711 182.165 29.3821 181.798C30.3928 181.465 31.113 181.431 31.202 181.426L32.3817 204.635ZM26.2048 204.949L32.3817 204.635L31.202 181.426L25.0252 181.74L26.2048 204.949ZM11.2484 191.493C11.3374 193.243 11.7625 197.958 15.8198 201.562C19.8165 205.111 24.4908 205.036 26.2048 204.949L25.0252 181.74C25.1142 181.735 25.8341 181.696 26.8734 181.926C28.0158 182.178 29.6757 182.786 31.2518 184.186C32.8378 185.595 33.6567 187.198 34.0537 188.369C34.4123 189.426 34.4513 190.193 34.4574 190.313L11.2484 191.493ZM9.29824 153.125L11.2484 191.493L34.4574 190.313L32.5072 151.945L9.29824 153.125ZM22.8132 138.222C21.0991 138.309 16.4413 138.708 12.8251 142.644C9.15413 146.641 9.20926 151.374 9.29824 153.125L32.5072 151.945C32.5133 152.065 32.5524 152.832 32.3028 153.921C32.0265 155.125 31.3744 156.803 29.9394 158.365C28.5134 159.918 26.9238 160.692 25.8128 161.058C24.8021 161.392 24.0819 161.426 23.9929 161.431L22.8132 138.222ZM30.0339 137.855L22.8132 138.222L23.9929 161.431L31.2136 161.064L30.0339 137.855ZM42.7029 143.789C41.6759 142.355 39.8749 140.328 36.9136 139.029C34.1694 137.824 31.611 137.774 30.0339 137.855L31.2136 161.064C31.0426 161.072 29.503 161.155 27.5749 160.309C25.4296 159.367 24.2421 157.924 23.8109 157.322L42.7029 143.789ZM53.547 158.991L42.7163 143.808L23.7976 157.303L34.6283 172.486L53.547 158.991ZM58.8602 168.585C57.6313 165.83 56.3516 162.94 53.5615 159.011L34.6138 172.466C36.0161 174.441 36.5399 175.593 37.6375 178.053L58.8602 168.585ZM60.2682 171.652C59.7381 170.551 59.3115 169.597 58.8602 168.585L37.6375 178.053C38.0857 179.058 38.6367 180.294 39.3305 181.735L60.2682 171.652ZM49.697 165.064L49.2096 165.089L50.3892 188.298L50.8766 188.273L49.697 165.064ZM35.1421 161.892C35.5465 169.846 36.9376 174.018 39.3781 180.671L61.1955 172.667C59.0777 166.894 58.5824 165.261 58.3511 160.712L35.1421 161.892ZM34.6313 151.841L35.1421 161.892L58.3511 160.712L57.8403 150.662L34.6313 151.841ZM48.0859 136.941C46.4053 137.027 41.6163 137.417 37.9832 141.523C34.4029 145.57 34.5534 150.308 34.6313 151.841L57.8403 150.662C57.843 150.715 57.8858 151.425 57.6664 152.457C57.4235 153.599 56.8209 155.303 55.3872 156.923C53.9456 158.552 52.3055 159.373 51.1427 159.762C50.0961 160.112 49.3475 160.146 49.2656 160.15L48.0859 136.941ZM54.3275 136.624L48.0859 136.941L49.2656 160.15L55.5071 159.833L54.3275 136.624ZM69.2235 150.083C69.1342 148.327 68.7093 143.678 64.7395 140.086C60.7639 136.489 56.0897 136.534 54.3275 136.624L55.5071 159.833C55.3806 159.839 54.6239 159.877 53.5496 159.633C52.3666 159.364 50.7061 158.728 49.1478 157.318C47.5904 155.909 46.7939 154.322 46.4093 153.178C46.0598 152.139 46.0208 151.386 46.0145 151.263L69.2235 150.083ZM49.845 159.309L49.8495 159.313L65.3885 142.033L65.3839 142.029L49.845 159.309ZM88.2342 149.112L90.1844 187.48L113.393 186.301L111.443 147.932L88.2342 149.112ZM97.7238 157.622C97.6005 157.628 96.8292 157.667 95.7363 157.415C94.5255 157.137 92.8461 156.48 91.2857 155.042C89.7367 153.614 88.9669 152.026 88.6032 150.92C88.2722 149.914 88.2386 149.198 88.2342 149.112L111.443 147.932C111.356 146.224 110.96 141.572 107.036 137.954C103.04 134.271 98.3007 134.323 96.5441 134.413L97.7238 157.622ZM90.7489 157.976L97.7238 157.622L96.5441 134.413L89.5693 134.767L90.7489 157.976ZM99.3267 148.548C99.3311 148.634 99.3702 149.35 99.143 150.385C98.8933 151.521 98.2885 153.179 96.8922 154.757C95.4857 156.346 93.8815 157.169 92.7053 157.569C91.6434 157.931 90.8722 157.97 90.7489 157.976L89.5693 134.767C87.8127 134.857 83.0926 135.285 79.4909 139.354C75.9532 143.351 76.0309 148.019 76.1178 149.728L99.3267 148.548ZM100.015 162.094L99.3267 148.548L76.1178 149.728L76.8062 163.273L100.015 162.094ZM77.13 174.891L89.0006 174.288L87.8209 151.079L75.9503 151.682L77.13 174.891ZM64.2472 150.331L64.9356 163.877L88.1446 162.697L87.4561 149.152L64.2472 150.331ZM73.7367 158.841C73.6582 158.845 72.8954 158.889 71.8 158.639C70.5755 158.36 68.8419 157.689 67.2414 156.186C65.661 154.701 64.9156 153.067 64.5784 151.995C64.2729 151.024 64.248 150.349 64.2472 150.331L87.4561 149.152C87.3803 147.66 87.074 142.931 83.1511 139.247C79.1014 135.443 74.2312 135.547 72.557 135.632L73.7367 158.841ZM66.8222 159.192L73.7367 158.841L72.557 135.632L65.6426 135.983L66.8222 159.192ZM75.3397 149.767C75.3439 149.85 75.3845 150.58 75.1504 151.633C74.8915 152.797 74.2667 154.475 72.8413 156.056C71.4151 157.637 69.8082 158.433 68.6708 158.812C67.6426 159.154 66.908 159.188 66.8222 159.192L65.6426 135.983C63.9353 136.07 59.2115 136.469 55.5828 140.493C51.9593 144.511 52.0442 149.245 52.1307 150.947L75.3397 149.767ZM77.2898 188.136L75.3397 149.767L52.1307 150.947L54.0809 189.315L77.2898 188.136ZM67.8576 179.562C67.9466 179.558 68.6666 179.519 69.7058 179.748C70.8483 180 72.5081 180.609 74.0843 182.009C75.6702 183.417 76.4892 185.02 76.8862 186.191C77.2448 187.248 77.2837 188.015 77.2898 188.136L54.0809 189.315C54.1698 191.066 54.5949 195.78 58.6522 199.384C62.6489 202.934 67.3232 202.858 69.0373 202.771L67.8576 179.562ZM74.7721 179.211L67.8576 179.562L69.0373 202.771L75.9517 202.42L74.7721 179.211ZM66.1973 188.699C66.1946 188.647 66.1518 187.936 66.3712 186.904C66.6141 185.762 67.2167 184.059 68.6505 182.438C70.092 180.809 71.7322 179.988 72.8949 179.599C73.9415 179.249 74.6902 179.215 74.7721 179.211L75.9517 202.42C77.6322 202.334 82.4213 201.944 86.0544 197.838C89.6347 193.792 89.4843 189.053 89.4063 187.52L66.1973 188.699ZM65.4807 174.601L66.1973 188.699L89.4063 187.52L88.6897 173.421L65.4807 174.601ZM88.366 161.803L76.4954 162.407L77.675 185.616L89.5456 185.012L88.366 161.803ZM101.277 186.916L100.56 172.818L77.3513 173.997L78.0679 188.096L101.277 186.916ZM91.7843 178.346C91.9108 178.34 92.6675 178.302 93.7418 178.547C94.9247 178.816 96.5853 179.452 98.1436 180.861C99.701 182.271 100.498 183.857 100.882 185.001C101.232 186.041 101.271 186.793 101.277 186.916L78.0679 188.096C78.1572 189.852 78.5821 194.502 82.552 198.094C86.5275 201.691 91.2018 201.645 92.9639 201.555L91.7843 178.346ZM98.7591 177.992L91.7843 178.346L92.9639 201.555L99.9388 201.201L98.7591 177.992ZM90.1844 187.48C90.1781 187.357 90.1406 186.604 90.3829 185.535C90.6496 184.357 91.2811 182.698 92.6876 181.139C94.0949 179.578 95.6825 178.777 96.8321 178.39C97.876 178.038 98.6326 177.998 98.7591 177.992L99.9388 201.201C101.701 201.111 106.356 200.683 109.946 196.701C113.531 192.725 113.483 188.057 113.393 186.301L90.1844 187.48Z" fill="white" mask="url(#path-1-outside-1_9661_7793)"/>
</g>
<path d="M108.38 81.7673C109.752 108.764 127.211 131.15 151.008 140.126C159.265 143.256 168.286 144.754 177.653 144.278L179.877 188.022C179.877 188.022 242.681 123.171 240.236 75.069C238.386 38.6838 207.379 10.6808 170.956 12.5323C134.551 14.3828 106.526 45.3866 108.375 81.7675L108.38 81.7673Z" fill="#78287E"/>
<path d="M170.956 12.5323C134.538 14.3835 106.526 45.3866 108.375 81.7675C110.821 129.874 179.877 188.018 179.877 188.018L177.653 144.274C187.021 143.798 195.848 141.392 203.74 137.441C226.504 126.098 241.603 102.057 240.231 75.0605C238.386 38.6838 207.366 10.6815 170.956 12.5323Z" fill="#EC631A"/>
<path d="M159.84 96.4663L157.918 58.6526C157.765 55.64 160.026 53.4637 162.258 54.4742L199.027 71.1399C201.846 72.4157 202.126 77.3964 199.475 79.0067L164.629 100.159C162.509 101.447 159.995 99.5092 159.841 96.4706L159.84 96.4663Z" fill="#78287E"/>
<path d="M92.242 97.3332L52.7863 99.3389C49.6449 99.4986 47.3706 97.1449 48.4254 94.8216L65.819 56.5296C67.1513 53.5977 72.3491 53.2987 74.0273 56.0602L96.0937 92.3464C97.4353 94.5522 95.4137 97.172 92.242 97.3332Z" fill="#78287E"/>
<path d="M148.879 187.888L109.424 189.893C106.282 190.053 104.008 187.699 105.063 185.376L122.456 147.084C123.789 144.152 128.986 143.853 130.665 146.615L152.731 182.901C154.073 185.107 152.051 187.727 148.879 187.888Z" fill="#78287E"/>
<path d="M52.5287 70.4288C53.0217 80.1289 47.0905 85.9114 37.5624 86.3958L30.0014 86.7801L30.5352 97.281C30.632 99.1856 30.0511 99.8921 28.0839 99.9921L21.1425 100.345C19.1754 100.445 18.4651 99.804 18.3683 97.8995L16.4145 59.4626C16.3176 57.5581 16.9593 56.8485 18.9264 56.7485L35.8899 55.8862C45.4787 55.3987 52.0325 60.6681 52.5287 70.4288Z" fill="#78287E"/>
<path d="M30.9778 105.903L32.5167 136.176L47.331 135.423C49.2375 135.326 49.9447 135.906 50.0446 137.872L50.3286 143.46C50.4254 145.364 49.7838 146.074 47.8773 146.171L23.5349 147.408C21.5677 147.508 20.8575 146.867 20.7607 144.963L18.8068 106.526C18.71 104.621 19.3516 103.912 21.3188 103.812L28.2645 103.458C30.2316 103.359 30.8812 104.002 30.978 105.907L30.9778 105.903Z" fill="#78287E"/>
<path d="M54.4485 102.128L61.7018 101.759C63.5477 101.665 64.1898 102.249 64.2834 104.088L66.2498 142.772C66.3435 144.616 65.7592 145.257 63.9177 145.351L56.6644 145.72C54.8186 145.814 54.1764 145.23 54.0829 143.39L52.1165 104.707C52.0227 102.863 52.607 102.221 54.4485 102.128Z" fill="#78287E"/>
<path d="M57.6127 151.13L59.5665 189.567C59.6633 191.472 59.0217 192.182 57.1152 192.278L50.1695 192.631C48.8783 192.697 48.1837 192.364 47.5853 191.53L37.3781 177.459C34.4589 173.359 33.2679 170.525 31.3276 165.086L30.838 165.111C32.4289 170.941 33.3246 174.033 33.6711 180.85L34.1798 190.858C34.2766 192.762 33.635 193.472 31.6679 193.572L25.4631 193.887C23.4959 193.987 22.7857 193.346 22.6889 191.442L20.735 153.005C20.6382 151.101 21.2798 150.391 23.247 150.291L30.5003 149.922C31.9129 149.85 32.5468 150.187 33.1452 151.02L44.0228 166.229C46.942 170.329 47.5545 172.637 49.7589 177.203L50.2485 177.178C47.9599 170.954 47.0128 168.047 46.6944 161.784L46.1826 151.716C46.0858 149.811 46.6667 149.105 48.6339 149.005L54.9037 148.686C56.8101 148.589 57.5204 149.23 57.6172 151.135L57.6127 151.13Z" fill="#78287E"/>
<path d="M100.028 148.975L101.982 187.412C102.079 189.316 101.437 190.026 99.5306 190.123L92.5242 190.479C90.6177 190.576 89.9074 189.935 89.8106 188.03L89.0927 173.907L77.1684 174.513L77.8864 188.637C77.9832 190.541 77.4022 191.248 75.4351 191.348L68.4894 191.701C66.5222 191.801 65.812 191.16 65.7151 189.255L63.7613 150.818C63.6614 148.853 64.303 148.144 66.2702 148.044L73.2159 147.691C75.183 147.591 75.8326 148.235 75.9325 150.2L76.6223 163.769L88.5466 163.163L87.8568 149.594C87.7569 147.628 88.3985 146.919 90.305 146.822L97.3113 146.466C99.2178 146.369 99.9281 147.01 100.028 148.975Z" fill="#78287E"/>
<defs>
<filter id="filter0_d_9661_7793" x="0.430632" y="0.630493" width="255.206" height="213.402" filterUnits="userSpaceOnUse" color-interpolation-filters="sRGB">
<feFlood flood-opacity="0" result="BackgroundImageFix"/>
<feColorMatrix in="SourceAlpha" type="matrix" values="0 0 0 0 0 0 0 0 0 0 0 0 0 0 0 0 0 0 127 0" result="hardAlpha"/>
<feOffset dy="4.52872"/>
<feGaussianBlur stdDeviation="2.26436"/>
<feComposite in2="hardAlpha" operator="out"/>
<feColorMatrix type="matrix" values="0 0 0 0 0 0 0 0 0 0 0 0 0 0 0 0 0 0 0.25 0"/>
<feBlend mode="normal" in2="BackgroundImageFix" result="effect1_dropShadow_9661_7793"/>
<feBlend mode="normal" in="SourceGraphic" in2="effect1_dropShadow_9661_7793" result="shape"/>
</filter>
</defs>
</svg>
